<svg width="692" height="294" viewBox="0 0 692 294" fill="none" xmlns="http://www.w3.org/2000/svg">
<path d="M259.816 46.632C259.816 52.104 257.8 56.16 253.768 58.8C250.36 61.008 245.752 62.112 239.944 62.112C237.736 62.112 235.36 61.992 232.816 61.752C232.816 74.232 233.056 81.648 233.536 84C229.552 83.568 226.864 83.352 225.472 83.352C222.88 83.352 219.64 83.568 215.752 84C216.424 76.752 216.76 68.712 216.76 59.88C216.76 48.648 216.496 39.504 215.968 32.448C218.704 32.88 221.92 33.096 225.616 33.096C227.296 33.096 229.792 33 233.104 32.808C236.464 32.568 238.912 32.448 240.448 32.448C245.92 32.448 250.312 33.408 253.624 35.328C257.752 37.728 259.816 41.496 259.816 46.632ZM243.184 47.064C243.184 43.656 242.392 41.28 240.808 39.936C239.608 38.88 237.784 38.352 235.336 38.352C234.76 38.352 233.944 38.4 232.888 38.496C232.84 43.344 232.816 49.248 232.816 56.208C233.392 56.304 234.304 56.352 235.552 56.352C240.64 56.352 243.184 53.256 243.184 47.064ZM299.351 58.872L300.935 61.536C306.551 70.992 311.303 78.48 315.191 84C311.207 83.568 307.847 83.352 305.111 83.352C302.807 83.352 299.759 83.568 295.967 84C293.423 79.056 289.367 71.64 283.799 61.752H283.583C283.583 69.672 283.751 77.088 284.087 84C280.823 83.568 277.991 83.352 275.591 83.352C273.575 83.352 270.623 83.568 266.735 84C267.311 77.472 267.599 71.136 267.599 64.992C267.599 55.488 267.359 44.64 266.879 32.448C269.711 32.88 272.975 33.096 276.671 33.096C278.207 33.096 280.487 33 283.511 32.808C286.583 32.568 288.887 32.448 290.423 32.448C304.007 32.448 310.799 37.056 310.799 46.272C310.799 53.04 306.983 57.24 299.351 58.872ZM283.583 38.496V56.064C284.207 56.16 285.095 56.208 286.247 56.208C291.575 56.208 294.239 53.16 294.239 47.064C294.239 41.256 291.455 38.352 285.887 38.352C285.407 38.352 284.639 38.4 283.583 38.496ZM337.167 60.24V76.728H342.207C343.647 76.728 348.063 76.56 355.455 76.224C355.215 78.48 355.095 79.848 355.095 80.328C355.095 81.48 355.215 82.704 355.455 84C350.463 83.568 344.655 83.352 338.031 83.352C331.311 83.352 325.455 83.568 320.463 84C320.847 79.584 321.039 71.208 321.039 58.872C321.039 48.744 320.799 39.936 320.319 32.448C326.271 32.88 331.263 33.096 335.295 33.096C344.895 33.096 351.615 32.88 355.455 32.448C355.215 34.608 355.095 35.88 355.095 36.264C355.095 36.648 355.215 37.992 355.455 40.296C349.839 39.96 346.263 39.792 344.727 39.792H337.167V53.904C341.199 53.904 347.079 53.664 354.807 53.184C354.567 54.624 354.447 55.896 354.447 57C354.447 57.528 354.567 58.824 354.807 60.888C348.999 60.456 343.119 60.24 337.167 60.24ZM415.166 57.576C415.166 62.856 414.014 67.584 411.71 71.76C409.454 75.936 406.406 78.96 402.566 80.832C398.294 82.944 393.83 84 389.174 84C387.542 84 385.07 83.904 381.758 83.712C378.494 83.472 376.022 83.352 374.342 83.352C372.614 83.352 369.206 83.568 364.118 84C364.646 75.936 364.91 68.472 364.91 61.608C364.91 52.392 364.694 42.672 364.262 32.448C367.718 32.88 370.598 33.096 372.902 33.096C374.486 33.096 376.862 33 380.03 32.808C383.246 32.568 385.646 32.448 387.23 32.448C394.382 32.448 400.262 33.912 404.87 36.84C408.23 39 410.822 42 412.646 45.84C414.326 49.44 415.166 53.352 415.166 57.576ZM397.742 57.648C397.742 49.776 396.422 44.4 393.782 41.52C391.91 39.456 388.862 38.424 384.638 38.424C383.582 38.424 382.43 38.496 381.182 38.64C380.99 42.288 380.894 46.296 380.894 50.664C380.894 53.16 380.918 57.696 380.966 64.272C381.014 70.848 381.038 75.408 381.038 77.952C381.998 78 383.462 78.024 385.43 78.024C390.134 78.024 393.398 76.344 395.222 72.984C396.902 69.96 397.742 64.848 397.742 57.648ZM439.821 52.896V60.096C439.821 71.04 440.061 79.008 440.541 84C437.901 83.568 434.901 83.352 431.541 83.352C429.381 83.352 426.525 83.568 422.973 84C423.453 76.464 423.693 68.544 423.693 60.24C423.693 58.944 423.669 56.304 423.621 52.32C423.573 48.288 423.549 45.624 423.549 44.328C423.549 40.632 423.357 36.672 422.973 32.448C426.765 32.88 429.693 33.096 431.757 33.096C434.637 33.096 437.589 32.88 440.613 32.448C440.085 39.552 439.821 46.368 439.821 52.896ZM493.149 46.128H490.269C489.693 43.632 488.421 41.712 486.453 40.368C484.485 39.024 482.205 38.352 479.613 38.352C474.669 38.352 470.997 40.344 468.597 44.328C466.629 47.544 465.621 51.792 465.573 57.072C465.429 70.848 470.037 77.736 479.397 77.736C482.325 77.736 485.037 77.04 487.533 75.648C488.973 74.832 490.821 73.44 493.077 71.472L495.309 72.696C494.349 75.864 493.581 78.696 493.005 81.192C486.621 83.496 481.029 84.648 476.229 84.648C468.309 84.648 461.757 82.344 456.573 77.736C451.197 72.888 448.509 66.552 448.509 58.728C448.509 50.376 451.389 43.728 457.149 38.784C462.573 34.128 469.533 31.8 478.029 31.8C483.549 31.8 489.309 32.976 495.309 35.328C495.021 36.384 494.637 37.992 494.157 40.152C493.869 41.496 493.533 43.488 493.149 46.128ZM511.486 39.936C506.734 39.936 502.27 40.176 498.094 40.656C498.382 39.36 498.526 37.992 498.526 36.552C498.526 35.928 498.382 34.56 498.094 32.448C502.846 32.88 510.022 33.096 519.622 33.096C529.03 33.096 536.254 32.88 541.294 32.448C541.006 34.752 540.862 36.216 540.862 36.84C540.862 38.136 541.006 39.408 541.294 40.656C536.398 40.176 531.934 39.936 527.902 39.936C527.758 44.16 527.686 49.32 527.686 55.416C527.686 67.464 527.902 76.992 528.334 84C524.062 83.568 521.062 83.352 519.334 83.352C516.934 83.352 514.15 83.568 510.982 84C511.51 79.68 511.774 70.512 511.774 56.496C511.774 51.168 511.678 45.648 511.486 39.936ZM563.782 52.896V60.096C563.782 71.04 564.022 79.008 564.502 84C561.862 83.568 558.862 83.352 555.502 83.352C553.342 83.352 550.486 83.568 546.934 84C547.414 76.464 547.654 68.544 547.654 60.24C547.654 58.944 547.63 56.304 547.582 52.32C547.534 48.288 547.51 45.624 547.51 44.328C547.51 40.632 547.318 36.672 546.934 32.448C550.726 32.88 553.654 33.096 555.718 33.096C558.598 33.096 561.55 32.88 564.574 32.448C564.046 39.552 563.782 46.368 563.782 52.896ZM601.558 31.8C610.15 31.8 617.134 34.032 622.51 38.496C628.222 43.248 631.078 49.728 631.078 57.936C631.078 66.576 628.198 73.272 622.438 78.024C617.11 82.44 610.054 84.648 601.27 84.648C593.062 84.648 586.27 82.32 580.894 77.664C575.23 72.816 572.398 66.336 572.398 58.224C572.398 49.872 575.206 43.32 580.822 38.568C586.102 34.056 593.014 31.8 601.558 31.8ZM602.134 78.744C609.91 78.744 613.798 71.856 613.798 58.08C613.798 44.496 609.742 37.704 601.63 37.704C597.118 37.704 593.878 39.936 591.91 44.4C590.422 47.664 589.678 51.888 589.678 57.072C589.678 63.264 590.302 67.992 591.55 71.256C593.47 76.248 596.998 78.744 602.134 78.744ZM656.615 64.056L652.655 59.52C651.311 58.08 649.271 55.896 646.535 52.968V60.456C646.535 65.16 646.871 73.008 647.543 84C646.007 83.568 644.567 83.352 643.223 83.352C642.119 83.352 640.487 83.568 638.327 84C639.239 74.544 639.695 65.52 639.695 56.928C639.695 46.992 639.503 38.832 639.119 32.448C641.519 32.88 643.559 33.096 645.239 33.096C646.775 33.096 648.623 32.88 650.783 32.448C655.727 38.832 661.415 45.432 667.847 52.248C670.007 54.648 673.439 58.392 678.143 63.48C678.143 61.848 678.095 59.736 677.999 57.144C677.903 53.688 677.855 51.6 677.855 50.88C677.711 44.256 677.447 38.112 677.063 32.448C679.031 32.88 680.663 33.096 681.959 33.096C683.399 33.096 684.839 32.88 686.279 32.448C686.087 34.848 685.847 38.496 685.559 43.392C685.175 53.616 684.983 63.312 684.983 72.48C684.983 75.072 685.079 78.912 685.271 84C683.447 83.568 681.479 83.352 679.367 83.352C677.927 83.352 676.079 83.568 673.823 84C671.807 81.504 666.071 74.856 656.615 64.056ZM259.816 134.632C259.816 140.104 257.8 144.16 253.768 146.8C250.36 149.008 245.752 150.112 239.944 150.112C237.736 150.112 235.36 149.992 232.816 149.752C232.816 162.232 233.056 169.648 233.536 172C229.552 171.568 226.864 171.352 225.472 171.352C222.88 171.352 219.64 171.568 215.752 172C216.424 164.752 216.76 156.712 216.76 147.88C216.76 136.648 216.496 127.504 215.968 120.448C218.704 120.88 221.92 121.096 225.616 121.096C227.296 121.096 229.792 121 233.104 120.808C236.464 120.568 238.912 120.448 240.448 120.448C245.92 120.448 250.312 121.408 253.624 123.328C257.752 125.728 259.816 129.496 259.816 134.632ZM243.184 135.064C243.184 131.656 242.392 129.28 240.808 127.936C239.608 126.88 237.784 126.352 235.336 126.352C234.76 126.352 233.944 126.4 232.888 126.496C232.84 131.344 232.816 137.248 232.816 144.208C233.392 144.304 234.304 144.352 235.552 144.352C240.64 144.352 243.184 141.256 243.184 135.064ZM299.351 146.872L300.935 149.536C306.551 158.992 311.303 166.48 315.191 172C311.207 171.568 307.847 171.352 305.111 171.352C302.807 171.352 299.759 171.568 295.967 172C293.423 167.056 289.367 159.64 283.799 149.752H283.583C283.583 157.672 283.751 165.088 284.087 172C280.823 171.568 277.991 171.352 275.591 171.352C273.575 171.352 270.623 171.568 266.735 172C267.311 165.472 267.599 159.136 267.599 152.992C267.599 143.488 267.359 132.64 266.879 120.448C269.711 120.88 272.975 121.096 276.671 121.096C278.207 121.096 280.487 121 283.511 120.808C286.583 120.568 288.887 120.448 290.423 120.448C304.007 120.448 310.799 125.056 310.799 134.272C310.799 141.04 306.983 145.24 299.351 146.872ZM283.583 126.496V144.064C284.207 144.16 285.095 144.208 286.247 144.208C291.575 144.208 294.239 141.16 294.239 135.064C294.239 129.256 291.455 126.352 285.887 126.352C285.407 126.352 284.639 126.4 283.583 126.496ZM337.167 148.24V164.728H342.207C343.647 164.728 348.063 164.56 355.455 164.224C355.215 166.48 355.095 167.848 355.095 168.328C355.095 169.48 355.215 170.704 355.455 172C350.463 171.568 344.655 171.352 338.031 171.352C331.311 171.352 325.455 171.568 320.463 172C320.847 167.584 321.039 159.208 321.039 146.872C321.039 136.744 320.799 127.936 320.319 120.448C326.271 120.88 331.263 121.096 335.295 121.096C344.895 121.096 351.615 120.88 355.455 120.448C355.215 122.608 355.095 123.88 355.095 124.264C355.095 124.648 355.215 125.992 355.455 128.296C349.839 127.96 346.263 127.792 344.727 127.792H337.167V141.904C341.199 141.904 347.079 141.664 354.807 141.184C354.567 142.624 354.447 143.896 354.447 145C354.447 145.528 354.567 146.824 354.807 148.888C348.999 148.456 343.119 148.24 337.167 148.24ZM406.67 140.032L404.942 143.848C403.598 147.016 401.534 151.768 398.75 158.104C397.07 161.944 395.27 166.504 393.35 171.784C391.43 171.544 390.254 171.424 389.822 171.424C389.582 171.424 388.382 171.544 386.222 171.784C384.686 167.512 382.55 162.28 379.814 156.088C377.558 150.952 375.302 145.792 373.046 140.608C372.326 144.4 371.558 149.704 370.742 156.52C369.878 163.672 369.398 168.832 369.302 172C367.862 171.568 366.374 171.352 364.838 171.352C363.59 171.352 362.006 171.568 360.086 172C361.19 167.872 362.726 160.552 364.694 150.04C366.47 140.536 367.67 131.632 368.294 123.328L368.51 120.448C370.382 120.88 372.59 121.096 375.134 121.096C377.63 121.096 379.862 120.88 381.83 120.448C384.614 128.56 388.958 138.808 394.862 151.192C397.022 146.056 399.206 140.92 401.414 135.784C403.958 129.688 405.974 124.576 407.462 120.448C409.238 120.88 411.374 121.096 413.87 121.096C416.702 121.096 418.958 120.88 420.638 120.448L421.502 129.736C422.126 136.36 422.99 143.848 424.094 152.2C425.438 161.848 426.566 168.448 427.478 172C423.83 171.568 420.902 171.352 418.694 171.352C416.246 171.352 413.39 171.568 410.126 172C409.742 166.24 409.19 160.048 408.47 153.424C407.99 148.672 407.39 144.208 406.67 140.032ZM451.774 140.896V148.096C451.774 159.04 452.014 167.008 452.494 172C449.854 171.568 446.854 171.352 443.494 171.352C441.334 171.352 438.478 171.568 434.926 172C435.406 164.464 435.646 156.544 435.646 148.24C435.646 146.944 435.622 144.304 435.574 140.32C435.526 136.288 435.502 133.624 435.502 132.328C435.502 128.632 435.31 124.672 434.926 120.448C438.718 120.88 441.646 121.096 443.71 121.096C446.59 121.096 449.542 120.88 452.566 120.448C452.038 127.552 451.774 134.368 451.774 140.896ZM479.831 148.24V164.728H484.871C486.311 164.728 490.727 164.56 498.119 164.224C497.879 166.48 497.759 167.848 497.759 168.328C497.759 169.48 497.879 170.704 498.119 172C493.127 171.568 487.319 171.352 480.695 171.352C473.975 171.352 468.119 171.568 463.127 172C463.511 167.584 463.703 159.208 463.703 146.872C463.703 136.744 463.463 127.936 462.983 120.448C468.935 120.88 473.927 121.096 477.959 121.096C487.559 121.096 494.279 120.88 498.119 120.448C497.879 122.608 497.759 123.88 497.759 124.264C497.759 124.648 497.879 125.992 498.119 128.296C492.503 127.96 488.927 127.792 487.391 127.792H479.831V141.904C483.863 141.904 489.743 141.664 497.471 141.184C497.231 142.624 497.111 143.896 497.111 145C497.111 145.528 497.231 146.824 497.471 148.888C491.663 148.456 485.783 148.24 479.831 148.24ZM539.398 146.872L540.982 149.536C546.598 158.992 551.35 166.48 555.238 172C551.254 171.568 547.894 171.352 545.158 171.352C542.854 171.352 539.806 171.568 536.014 172C533.47 167.056 529.414 159.64 523.846 149.752H523.63C523.63 157.672 523.798 165.088 524.134 172C520.87 171.568 518.038 171.352 515.638 171.352C513.622 171.352 510.67 171.568 506.782 172C507.358 165.472 507.646 159.136 507.646 152.992C507.646 143.488 507.406 132.64 506.926 120.448C509.758 120.88 513.022 121.096 516.718 121.096C518.254 121.096 520.534 121 523.558 120.808C526.63 120.568 528.934 120.448 530.47 120.448C544.054 120.448 550.846 125.056 550.846 134.272C550.846 141.04 547.03 145.24 539.398 146.872ZM523.63 126.496V144.064C524.254 144.16 525.142 144.208 526.294 144.208C531.622 144.208 534.286 141.16 534.286 135.064C534.286 129.256 531.502 126.352 525.934 126.352C525.454 126.352 524.686 126.4 523.63 126.496ZM233.176 252.728C241.096 252.728 246.88 252.44 250.528 251.864C250.288 253.64 250.168 255.032 250.168 256.04C250.168 257.336 250.288 258.656 250.528 260C245.344 259.568 240.28 259.352 235.336 259.352C228.52 259.352 222.064 259.568 215.968 260C216.688 256.256 217.048 250.568 217.048 242.936C217.048 236.072 216.928 228.944 216.688 221.552C216.64 218.432 216.424 214.064 216.04 208.448C219.064 208.88 222.136 209.096 225.256 209.096C228.472 209.096 231.304 208.88 233.752 208.448C233.272 213.632 233.032 222.944 233.032 236.384C233.032 237.248 233.056 240.008 233.104 244.664C233.152 249.272 233.176 251.96 233.176 252.728ZM274.448 236.24V252.728H279.488C280.928 252.728 285.344 252.56 292.736 252.224C292.496 254.48 292.376 255.848 292.376 256.328C292.376 257.48 292.496 258.704 292.736 260C287.744 259.568 281.936 259.352 275.312 259.352C268.592 259.352 262.736 259.568 257.744 260C258.128 255.584 258.32 247.208 258.32 234.872C258.32 224.744 258.08 215.936 257.6 208.448C263.552 208.88 268.544 209.096 272.576 209.096C282.176 209.096 288.896 208.88 292.736 208.448C292.496 210.608 292.376 211.88 292.376 212.264C292.376 212.648 292.496 213.992 292.736 216.296C287.12 215.96 283.544 215.792 282.008 215.792H274.448V229.904C278.48 229.904 284.36 229.664 292.088 229.184C291.848 230.624 291.728 231.896 291.728 233C291.728 233.528 291.848 234.824 292.088 236.888C286.28 236.456 280.4 236.24 274.448 236.24ZM308.959 249.704C308.287 251.432 307.207 254.864 305.719 260C303.751 259.568 302.119 259.352 300.823 259.352C299.527 259.352 297.919 259.568 295.999 260L300.463 250.424C302.047 247.016 305.527 238.712 310.903 225.512C312.871 220.664 315.079 214.88 317.527 208.16C319.495 208.592 321.175 208.808 322.567 208.808C324.055 208.808 325.759 208.592 327.679 208.16C330.223 216.272 333.655 225.704 337.975 236.456C339.943 241.4 343.255 249.248 347.911 260C345.799 259.568 342.655 259.352 338.479 259.352C335.983 259.352 332.887 259.568 329.191 260C328.231 256.352 327.175 252.92 326.023 249.704C324.967 249.704 323.383 249.68 321.271 249.632C319.159 249.632 317.575 249.632 316.519 249.632C315.703 249.632 314.455 249.632 312.775 249.632C311.095 249.68 309.823 249.704 308.959 249.704ZM323.719 243.224L317.527 226.448L311.047 243.224C312.487 243.272 314.599 243.296 317.383 243.296C320.215 243.296 322.327 243.272 323.719 243.224ZM398.144 222.848H395.48C393.656 217.088 389.456 214.208 382.88 214.208C377.504 214.208 373.544 216.392 371 220.76C368.984 224.216 367.976 228.848 367.976 234.656C367.976 247.904 372.416 254.528 381.296 254.528C382.496 254.528 383.864 254.312 385.4 253.88C385.4 253.928 385.256 248.264 384.968 236.888C388.424 237.32 391.16 237.536 393.176 237.536C396.728 237.536 399.464 237.32 401.384 236.888C401.096 243.224 400.952 248.6 400.952 253.016C400.952 253.784 401.024 255.248 401.168 257.408C393.344 259.616 386.576 260.72 380.864 260.72C372.368 260.72 365.36 258.464 359.84 253.952C353.84 249.104 350.84 242.552 350.84 234.296C350.84 226.376 353.696 219.944 359.408 215C364.976 210.2 372.176 207.8 381.008 207.8C388.064 207.8 394.88 209.216 401.456 212.048C399.968 215.696 398.864 219.296 398.144 222.848ZM411.169 238.256C411.169 224.048 410.905 214.112 410.377 208.448C413.545 208.88 416.545 209.096 419.377 209.096C422.785 209.096 425.761 208.88 428.305 208.448C427.633 212.528 427.297 220.808 427.297 233.288C427.297 239.912 427.753 244.328 428.665 246.536C430.153 250.136 433.369 251.936 438.313 251.936C442.489 251.936 445.417 250.352 447.097 247.184C448.009 245.408 448.513 242.648 448.609 238.904C448.657 236.648 448.681 233.192 448.681 228.536C448.681 221.672 448.393 214.976 447.817 208.448C450.649 208.88 452.521 209.096 453.433 209.096C454.825 209.096 456.505 208.88 458.473 208.448C457.801 217.616 457.465 226.472 457.465 235.016C457.465 239.768 457.201 243.296 456.673 245.6C456.001 248.576 454.681 251.216 452.713 253.52C448.633 258.272 442.513 260.648 434.353 260.648C426.481 260.648 420.649 258.848 416.857 255.248C413.065 251.648 411.169 245.984 411.169 238.256ZM485.034 236.24V252.728H490.074C491.514 252.728 495.93 252.56 503.322 252.224C503.082 254.48 502.962 255.848 502.962 256.328C502.962 257.48 503.082 258.704 503.322 260C498.33 259.568 492.522 259.352 485.898 259.352C479.178 259.352 473.322 259.568 468.33 260C468.714 255.584 468.906 247.208 468.906 234.872C468.906 224.744 468.666 215.936 468.186 208.448C474.138 208.88 479.13 209.096 483.162 209.096C492.762 209.096 499.482 208.88 503.322 208.448C503.082 210.608 502.962 211.88 502.962 212.264C502.962 212.648 503.082 213.992 503.322 216.296C497.706 215.96 494.13 215.792 492.594 215.792H485.034V229.904C489.066 229.904 494.946 229.664 502.674 229.184C502.434 230.624 502.314 231.896 502.314 233C502.314 233.528 502.434 234.824 502.674 236.888C496.866 236.456 490.986 236.24 485.034 236.24Z" fill="#263D87"/>
<path fill-rule="evenodd" clip-rule="evenodd" d="M156.12 225.86C159.74 220.59 175.47 221.33 181.17 227.19C179.97 226.78 178.8 226.24 177.57 225.98C173.5 225.12 169.42 223.87 165.31 223.75C162.27 223.66 159.18 225.1 156.11 225.86" fill="white"/>
<path d="M106.48 34.26C107.24 34.24 107.97 34.29 108.76 34.46C108.86 34.49 108.99 34.49 109.06 34.5C109.35 34.63 109.38 35.04 109.82 35.02C110.29 34.69 111.1 34.72 111.9 34.75C112.48 35.04 112.71 35.7 113.16 36.13C113.45 34.98 115.12 34.67 116.07 35.29C116.71 35.72 116.37 36.43 117.04 36.69C116.89 35.72 117.49 35.52 118.07 35.31C118.6 35.39 118.7 35.55 118.94 35.79C118.98 35.84 119.21 36.42 119.21 36.42C119.47 37.31 119.69 38.21 120.01 39.09C120.23 39.72 120.31 40.48 120.52 40.85H120.51V41.54C120.05 41.78 119.47 41.88 118.84 41.96C119.02 42.48 119.43 42.75 119.53 43.35C118.41 44.22 116.89 42.89 115.78 43.35C115.82 44.33 116.68 44.49 116.9 45.3C116.17 46.63 114.65 45.48 113.43 45.44C112.86 45.41 112.41 45.82 111.89 45.71C111.37 45.6 110.91 44.66 110.5 45.16C110.38 45.68 112.02 45.96 111.75 46.68C113.87 46.56 115.3 48.46 117.3 48.63C117.81 48.66 118.45 48.4 118.97 48.49C120.52 48.75 121.97 51.39 122.13 55.43C122.13 54.51 122.86 49.14 122.86 48.21C123.81 47.83 124.46 47.12 125.37 46.68C125.5 45.01 125.61 43.3 125.77 41.69C124.22 41.42 122.57 41.21 121.02 40.93C120.61 39.57 119.93 35.9 118.37 35.19C118.39 35.19 118.4 35.17 118.43 35.17C117.15 34.45 115.05 34.41 113.65 34.33C112.67 34.28 111.68 34.27 110.72 34.3C110.27 34.31 109.36 34.52 108.94 34.36C107.98 33.99 107.39 33.78 106.36 33.91C106.04 34.08 105.94 34.2 105.91 34.27C105.7 34.5 105.42 34.78 105.8 34.89C105.87 34.54 106.17 34.44 106.49 34.28M91.36 37.5C91.13 36.02 92.17 35.85 93.01 35.44C93.3 35.42 93.59 35.4 93.91 35.38C94.62 35.48 94.98 36.32 95.39 36.68C95.46 35.99 95.84 35.61 96.17 35.2C96.71 35.15 97.27 35.08 97.83 35.02C98.68 35.16 98.61 36.21 99.28 36.54C99.17 34.8 101.69 34.39 102.75 35.42C102.74 34.93 102.55 34.62 102.47 34.17L90.42 35.42C89.74 35.4 89.12 35.42 88.87 35.57C90.37 35.55 90.59 36.82 91.37 37.51L91.36 37.5ZM67.92 99.36C67.92 99.36 67.9 99.45 67.87 99.5C67.45 100.73 67.05 101.95 66.63 103.18C66.51 103.54 66.45 103.8 66.38 103.96C69.02 103.74 71.63 103.37 74.17 102.75C74.65 102.64 75.11 102.49 75.59 102.35C76.22 102.09 76.97 101.75 77.48 101.56C77.44 101.16 77.43 100.75 77.4 100.61C77.26 99.28 77.02 97.97 76.71 96.66C76.54 96.72 76.34 96.78 76.17 96.83C74.7 97.31 73.22 97.74 71.72 98.07C70.53 98.39 69.33 98.66 68.18 98.76C68.08 98.96 68.01 99.15 67.9 99.35L67.92 99.36ZM129.13 144.2C129.01 143.66 128.87 143.14 128.84 142.53C125.61 137.85 122.81 132.95 119.8 128.22C118.8 126.63 117.85 124.79 116.77 123.36C115.75 122.05 114.17 120.9 112.87 119.6C108.98 115.69 104.85 112.2 100.79 108.63C103.84 102.63 106.68 96.14 109.95 90.43C111.06 88.52 112.52 86.5 113.28 84.59C113.87 83.12 114.11 81.25 114.54 79.6C115.82 74.47 116.9 69.7 118.28 64.59C119.09 63.95 119.85 63.28 119.8 61.81C118.65 61.67 118.1 60.92 117.31 60.42C115.16 61.43 110.9 61.01 110.51 59.04C110 56.36 113.8 56.14 114.12 54.32C113.14 54.34 111.38 55.2 110.93 54.46C111.83 53.79 112.99 53.36 113.84 52.64C112.14 51.19 109.68 50.51 107.6 49.45C107.31 47.26 106.26 45.89 106.34 43.34C106.6 42.63 107 42.26 107.21 41.3C107.34 40.91 107.34 40.73 107.08 40.1C106.43 40.08 105.88 40.21 105.51 40.01C104.78 39.3 105.53 37.89 104.95 36.95C104.65 37.94 104.56 39.16 103.98 39.87C103.94 39.12 103.7 38.58 103.42 38.06C103.57 40.14 104.23 41.71 104.68 43.48C103.13 43.23 102.56 43.94 101.22 43.9C101.22 44.33 101.07 44.61 100.78 44.73C97.66 45.81 93.87 46.21 91.06 47.64C89.81 46.33 89.48 44.05 88.31 42.64C88.84 44.75 90.03 46.4 90.66 48.76C94.77 47.63 98.05 45.69 102.45 44.86C102.87 44.39 103.89 44.1 104.68 44.44C104.77 45.2 105.33 46.12 104.94 46.94C103.35 46.71 104.3 46.91 103.29 47.23C102.95 47.04 102.88 47.51 102.27 47.59C101.57 47.82 101.21 47.82 100.57 48.24C99.88 48.54 100 48.6 99.32 48.7C98.72 48.98 99.43 48.7 98.72 48.98C98.06 49.1 97.99 49.17 97.33 49.39C96.33 49.68 96.7 49.58 95.84 49.82C94.54 50.18 95.33 49.96 93.96 50.32C91.98 50.74 93.76 50.27 91.89 50.83C91.03 49.66 90.19 48.47 89.12 47.49C88.68 47.88 88.54 46.81 88.42 45.84C87.27 45.45 86.92 44.28 86.89 42.77C86.51 42.7 85.93 43.64 85.23 43.74C84.15 43.3 83.37 41.86 81.9 41.66C80.7 41.48 78.83 42.12 77.32 42.35C76.16 42.53 75.02 42.56 74.09 42.83C66.79 43.52 41.67 47.6 37.06 48.33C41.89 47.9 69.11 44.63 75.13 43.28C77.8 43.07 80.56 42.3 83.01 42.36C83.25 42.71 83.48 43.09 83.4 43.75C79.64 45.02 75.7 45.39 71.76 45.98C69.48 46.32 62.28 47.8 60.93 48.06C55.1 49.22 48.49 50.43 42.06 51.53C40.18 51.85 38.23 52.16 36.37 52.5C25.25 54.53 13.46 55.39 1.82 54.03C0.89 53.89 0.52 54.09 0.34 54.26C0.46 53.77 0.84 53.28 1.22 53.06C2.65 52.38 4.39 51.72 6.1 51.38H6.93C7.26 51.09 6.41 51.26 6.1 51.24C4.66 51.19 2.28 51.27 1.24 51.24C0.96 51.62 0.46 52.15 0.36 52.77C0.32 52.84 0 54.36 0 54.44V54.58C0.48 56.88 0.81 59.3 2.07 60.84C6.12 60.89 9.81 62.03 13.6 62.08C16.68 62.13 19.77 61.66 22.77 61.52C25.24 61.41 27.72 61.45 30.26 61.25C34.67 60.89 39.17 59.75 43.58 59.03C57.17 56.8 70.57 54.36 83.27 51.66C84.5 50.38 85.4 48.51 88.12 49.44C89.13 51.59 89.94 53.93 90.77 56.25C92.81 56.87 94.32 58.48 96.88 57.5C95.73 52.24 100.61 51.78 103.81 50.14C103.64 50.66 103.93 50.86 103.95 51.25C106.8 51.3 106.43 54.6 107.69 56.25C104.93 55.25 102.12 56.37 100.35 57.36C99.67 57.73 98.28 58.47 98.13 59.04C97.82 60.12 98.58 62.41 98.81 64.04C99.06 65.8 99.61 67.75 99.52 69.18C99.39 70.9 98.31 72.75 97.84 74.18C97.23 76.05 96.78 77.63 96.32 79.46C92.58 82.85 89.42 86.81 85.35 89.89C85.18 89.31 85.11 88.64 84.97 88.02C84.51 88.45 83.97 88.82 83.37 89.14C83.33 89.16 83.3 89.17 83.28 89.19C83.16 89.26 83.04 89.31 82.92 89.38C83.05 89.69 83.14 90.03 83.21 90.37C83.51 91.04 83.75 91.72 83.94 92.43C84.03 92.37 84.12 92.32 84.19 92.26C84.48 92 84.77 91.74 85.06 91.47C85.27 91.14 85.47 90.81 85.77 90.58C86.08 91.38 85.74 91.84 85.26 92.25C84.94 92.63 84.58 92.99 84.16 93.32C84.6 95.27 84.76 97.3 84.72 99.21C79.39 103.17 71.91 104.56 65.4 104.94C63.49 105.05 61.63 103.45 60.12 102.41C58.85 101.52 57.59 100.59 56.34 99.64C56.33 99.64 56.3 99.61 56.28 99.58C54.62 98.39 53.11 96.91 52.77 94.74C52.77 94.71 52.76 94.69 52.75 94.66C52.75 94.68 52.76 94.68 52.77 94.66C52.67 93.97 52.68 93.22 52.85 92.39C52.96 92.98 53.01 93.62 53.06 94.26C53.18 94.57 53.36 94.89 53.45 95.3C53.97 97.02 55.47 97.92 56.81 98.93C58.83 100.45 60.86 101.98 63.02 103.28C63.85 103.76 64.44 104.13 65.35 104.08V104.06C65.35 104.06 65.36 104.06 65.36 104.07C65.94 102.36 66.53 100.56 67.13 98.84C66.76 98.87 66.4 98.94 66.04 98.95C63.58 99.08 61 100.15 59.03 98.48C58.42 98.19 58 97.74 57.85 97.11C58.78 97.17 59.24 97.7 59.76 98.17C60.06 98.27 60.36 98.35 60.59 98.41C60.8 98.47 61.05 98.49 61.26 98.51C62.68 98.51 63.99 98.41 65.3 98.3C65.36 98.27 65.41 98.27 65.47 98.27C66.15 98.15 66.79 98.05 67.42 97.97C67.79 96.85 68.17 95.71 68.56 94.58C68.61 94.45 68.63 94.35 68.68 94.25C67.8 94.45 66.92 94.64 66.06 94.83C63.47 95.52 60.87 96.18 58.25 96.79C57.72 96.9 57.26 96.89 56.81 96.81C56.81 96.82 56.76 96.83 56.74 96.83C56.72 96.82 56.7 96.8 56.7 96.79C56.09 96.64 55.57 96.29 55.12 95.6C55.07 95.51 54.97 95.21 54.86 94.84C54.3 93.94 54.02 92.83 54.38 91.41C54.28 93.62 55.79 95.74 57.25 96.08C57.86 96.08 58.56 95.83 59.06 95.73C59.43 95.65 59.81 95.55 60.17 95.46C60.19 95.46 60.21 95.45 60.21 95.45C60.21 95.45 60.23 95.45 60.25 95.45C62.93 94.8 65.57 94.11 68.22 93.37C71.87 92.35 75.52 91.27 79.08 89.95C79.48 89.8 79.88 89.63 80.3 89.47C80.59 89.35 80.69 89.31 80.82 89.27C81.38 89.04 81.93 88.78 82.47 88.52C82.49 88.49 82.51 88.49 82.52 88.48C82.92 88.27 83.23 88.1 83.59 87.92C83.85 87.75 84.13 87.6 84.38 87.41C84.5 87.31 84.59 87.24 84.67 87.2C84.71 86.33 84.67 86.53 84.39 85.81C83.9 85.94 83.15 86.4 82.66 86.49C81.1 86.84 81.5 86.79 80.2 86.97C79.86 85.58 79.04 84.63 78.69 83.24C80.58 82.11 83.05 81.58 83.13 78.65C80.64 77.84 79.35 76.76 77.06 75.76C76.67 75.24 75.65 73.6 75.11 72.52C74.17 71.01 74.45 71.69 73.14 70.04C72.13 68.74 70.84 67.45 69.77 66.92C68.79 66.44 67.21 65.93 65.91 65.59C64.63 65.25 63.35 64.63 62.04 64.62C61.14 64.6 59.99 64.98 58.98 65.18C56.09 65.76 55.24 66.16 53.42 67.54C52.62 68.16 51.55 68.85 51.06 69.48C50.85 69.76 50.27 70.43 50.08 70.73C49.68 71.42 49.31 71.68 48.98 72.3C48.38 73.43 48.39 73.56 48 74.34C47.05 76.26 46.19 78.26 45.81 80.65C45.86 87.41 49.75 90.09 51.05 95.59C51.14 94.85 50.63 93.97 51.05 93.37C51.5 94.07 51.34 95.41 51.47 96.43C52.5 97.61 54.29 98.06 54.81 99.75C53.49 99.52 52.44 97.52 51.41 97.45C53.05 98.84 54.54 100.38 56.33 101.28C56.59 101.41 56.99 101.28 57.29 101.42C58.81 102.11 59.94 103.93 61.3 104.34C61.93 104.53 62.09 104.25 62.56 104.93C59.42 105.47 58.5 101.25 56.62 102.12C55.21 102.76 54.89 102.55 53.25 102.81C52.99 104.12 54.65 106.03 54.88 107.27C55.96 108.83 54.92 109.59 55.85 111.29C56.83 112.17 57.41 112.39 58.25 112.95C58.73 116.24 58.41 119.73 59.5 122.96C60.72 125.35 63.53 126.95 65.48 129.06C67.59 131.38 70.48 133.84 72.12 135.46C77.84 141.02 83.32 145.66 89.22 151.01C90.71 152.36 94.28 154.91 95.03 156.57C95.69 158 95.95 159.94 96.41 161.7C96.89 163.44 97.65 165.32 97.81 166.84C98.13 169.6 97.11 172.22 97.81 175.18C97.93 175.65 98.23 176.17 98.59 176.7C109.94 169.37 120.67 159.83 129.94 148.29C130.62 147.43 131.27 146.59 131.92 145.72C131.15 144.98 130.28 144.38 129.05 144.2H129.13ZM82.14 89.99C82 89.91 81.82 89.9 81.64 89.97C81.59 89.98 81.55 90.01 81.51 90.02C81.45 90.07 81.41 90.08 81.37 90.08C80.29 90.5 79.2 90.84 78.28 91.17C77.76 91.35 77.2 91.52 76.67 91.69C76.56 91.74 76.48 91.77 76.36 91.81C76.38 92.12 76.42 92.4 76.45 92.69C76.71 93.65 76.98 94.59 77.22 95.55C78.85 94.98 80.47 94.36 82.06 93.64C82.45 93.45 82.82 93.24 83.19 93.02C83.06 92.57 82.95 92.11 82.81 91.66C82.62 91.1 82.4 90.54 82.13 89.99H82.14ZM76.53 95.79C76.29 94.66 76.03 93.18 75.46 92.19C75.43 92.17 75.43 92.13 75.41 92.11C74.29 92.47 73.17 92.85 72.04 93.18C71.31 93.43 70.57 93.68 69.79 93.89C69.39 95.08 68.97 96.27 68.58 97.46C68.53 97.59 68.52 97.7 68.5 97.81C69.13 97.72 69.74 97.63 70.42 97.49C72.18 97.12 73.91 96.66 75.62 96.11C75.94 96.02 76.23 95.89 76.54 95.78L76.53 95.79ZM77.5 96.6C77.84 98.1 78.13 99.63 78.3 101.19C79.94 100.76 81.48 99.95 82.89 99.37C82.92 99.35 82.96 99.32 82.99 99.31C83.38 99.05 83.66 98.83 83.89 98.74C83.89 97.17 83.74 95.61 83.42 94.08C83.29 94.08 83.16 94.11 83.04 94.13C81.3 95.17 79.18 95.89 77.48 96.44C77.48 96.49 77.49 96.54 77.49 96.6H77.5Z" fill="#263D87"/>
<path d="M185.62 205.06C185.56 204.3 185.12 203.2 184.82 202.73C184.09 201.66 183.04 200.79 181.78 200.47C178.78 199.67 175.75 201.64 173.47 203.55C173.01 202.47 172.56 201.35 172.26 200.18L170.05 195.47C169.21 193.43 167.57 192.2 167.14 189.77C162.66 183.18 160.55 174.23 153.8 169.9C152.42 168.19 150.98 166.53 149.25 165.17C147.43 162.06 143.8 160.89 142.71 157.25C142.47 156.44 142.71 155.31 142.3 154.48C142.02 153.93 141.26 153.74 140.48 153.08C139.88 152.56 139.35 151.79 138.84 151.42C138.36 151.08 137.83 150.76 137.31 150.45C125.91 162.62 113.17 172.16 100.16 178.71C100.28 178.87 100.4 179.04 100.52 179.2C101.68 180.93 103.26 182.44 103.52 184.62C103.63 185.58 104.1 186.43 104.21 187.35C104.29 188.12 104.61 188.72 104.91 189.4C105.26 190.23 105.18 191.09 105.25 191.96C105.3 192.68 105.62 193.28 105.79 193.96C105.87 194.28 105.69 194.61 105.79 194.91C105.85 195.12 106.09 195.19 106.18 195.38C106.39 195.87 106.28 196.65 106.42 197.2C106.61 198.18 106.94 199.18 106.86 200.2C106.72 202.31 107.18 204.5 107.35 206.59C107.63 209.75 107.72 212.92 107.63 216.08C107.56 217.72 107.45 219.36 107.3 220.98C107.21 221.81 107.11 222.63 107 223.45C106.92 223.96 106.96 225.51 106.63 225.88C104.87 227.82 104.24 230.37 102.6 232.27C101.38 233.69 99.52 234.81 98.02 236.01C97.13 236.74 96.23 237.49 95.33 238.22C94.65 238.79 93.74 239.25 93.24 240.02C92.87 240.56 92.65 241.27 92.35 241.88C91.67 243.34 90.91 244.78 90.17 246.24C89.64 247.24 89.28 248.31 88.79 249.33C88.34 250.22 87.72 250.96 87.17 251.78C86.52 252.76 86.32 253.92 85.44 254.8C84.8 255.46 84.12 256.24 83.69 256.83C82.4 258.49 81.84 259.14 80.66 260.87C79.49 262.63 78.42 264.7 77.05 266.16C75.84 267.45 74.14 268.49 72.75 269.63C71.3 270.82 69.95 271.63 68.47 273.15C67.54 275.04 67.75 277.22 67.34 279.22C67.16 280.06 66.65 280.69 66.65 281.59C66.65 282.57 67.13 283.69 67.34 284.76C67.73 286.79 67.25 289.61 68.95 291.1C70.94 292.84 74.2 293.69 76.7 293.69C80.88 293.3 84.03 293 88.31 292.68C89.41 292.18 89.14 290 89.1 289.64C89.05 288.98 88.69 288.62 89.13 287.96C94.76 281.01 99.35 273.01 106.34 267.41C107.31 268.79 108.51 270.07 109.66 271.57C110.7 272.88 111.71 274.89 113 275.73C114.51 276.74 116.16 277.55 118.27 277.67C120.58 276.44 119.46 266.73 121.74 262.94C123.44 262.62 124.71 261.84 126.33 261.42C136.66 251.01 148.27 240.4 159.35 230.3C160.96 228.84 162.62 226.98 164.21 226C167.15 224.19 170.65 223.56 173.65 221.97C178.53 216.22 186.5 207.02 185.61 205.03M85.51 288.85C84.48 289.93 82.77 289.89 78.83 289.72C74.9 289.53 75.15 289.39 72.9 288.41C71.02 287.62 70.41 287.9 70.83 282.95C71.28 277.71 75.37 278.67 79.82 280.08C84.33 281.49 84.36 281.96 84.58 282.9C84.8 283.86 85.69 286.66 85.69 286.66C85.69 286.66 86.2 288.13 85.51 288.84V288.85ZM117.97 271.3C117.82 272.61 118.1 273.46 116.61 273.23C114.23 272.86 114.17 271 113.2 269.57C112.07 267.93 111.47 266.78 111.47 266.78C112.02 265.38 112.34 265.91 113.72 265.63C115.02 265.34 116.48 264.75 117.15 264.75C117.82 264.75 117.51 264.28 117.94 266.94C118.32 269.16 118.14 269.89 117.98 271.32L117.97 271.3ZM139.79 213.79C136.38 212.6 132.22 210.8 127.32 211.86C127.27 211.96 127.18 211.99 127.18 212.13C127.48 211.77 130.91 212.15 129.95 212.27C127.26 212.43 124.25 212.56 122.17 213.23C126.12 209.42 134.79 210.26 139.39 212.82C140.14 213.2 140.25 213.25 140.87 213.63C141.35 214.64 140.75 214.11 139.79 213.79ZM184.78 205.22C184.16 205.78 183.99 206.11 183.66 206.58C183.17 207.03 183.17 207.09 182.69 207.57C181.84 208.47 182.09 208.47 180.99 209.33C180.46 209.86 180.16 210.05 179.23 210.84C178.18 211.81 177.48 212.18 176.16 213.24C174.91 214.26 173.96 215.15 172.55 216.31C172.09 216.65 170.65 217.56 168.03 218.89C166.94 219.57 165.57 220.25 164.09 219.92C165.35 218.71 166.56 217.1 168.39 215.6C171 213.49 175.23 212.82 175.06 209.08C174.96 207.21 174.29 205.53 173.59 203.84C174.04 203.56 174.54 203.25 174.89 202.99C175.69 202.38 176.75 201.86 177.63 201.41C178.88 200.77 180.18 200.66 181.58 200.95C182.97 201.23 183.78 202.56 184.43 203.76C184.72 204.3 184.93 204.84 184.79 205.23L184.78 205.22Z" fill="#263D87"/>
<path d="M25.04 61.47C18.98 71.13 14.25 81.09 10.84 91C14.89 81.13 20.33 71.32 27.33 62.05C27.49 61.83 27.66 61.62 27.83 61.4C26.89 61.43 25.96 61.45 25.04 61.47Z" fill="#B5C655"/>
<mask id="mask0_11_23" style="mask-type:luminance" maskUnits="userSpaceOnUse" x="33" y="0" width="142" height="188">
<path d="M34.28 47.81V47.79C34.75 47.22 35.21 46.65 35.67 46.09H35.69V46.07C36.2 45.44 36.72 44.83 37.24 44.21H37.25C37.56 43.83 37.86 43.47 38.17 43.11H38.18V43.09C38.54 42.68 38.9 42.26 39.26 41.85H39.27V41.83C39.68 41.36 40.1 40.9 40.52 40.44C41.14 39.75 41.76 39.07 42.39 38.41L42.53 38.25H42.54V38.23L42.67 38.09H42.69V38.06C44.58 36.07 46.5 34.15 48.45 32.3H48.47V32.28L48.61 32.14H48.62L48.77 31.98C49.9 30.91 51.05 29.87 52.2 28.85C52.56 28.53 52.91 28.22 53.27 27.91H53.29V27.89C54.27 27.04 55.26 26.22 56.25 25.41H56.26C56.51 25.19 56.77 24.99 57.02 24.78H57.04C59.15 23.07 61.28 21.46 63.43 19.93H63.45C63.97 19.55 64.48 19.19 65 18.83H65.01C65.94 18.18 66.87 17.56 67.8 16.95H67.82L68.28 16.64C69.11 16.1 69.94 15.58 70.77 15.08H70.78L71.54 14.61H71.56C71.82 14.45 72.07 14.29 72.33 14.14H72.35C73.54 13.43 74.73 12.76 75.92 12.11H75.94C77.02 11.51 78.1 10.94 79.19 10.39H79.22V10.37L79.5 10.23H79.53V10.21L79.81 10.07H79.84L80.13 9.91H80.15L80.44 9.75H80.46L80.76 9.59H80.77C81.65 9.15 82.54 8.74 83.42 8.34C83.77 8.18 84.12 8.02 84.47 7.87H84.51V7.85L84.82 7.71C85.95 7.22 87.08 6.75 88.22 6.3H88.26V6.28C88.51 6.18 88.76 6.08 89.02 5.98H89.05C90.04 5.59 91.02 5.23 92.01 4.88L92.46 4.72H92.48L92.91 4.56H92.95C94.09 4.16 95.23 3.8 96.37 3.46H96.39C97.32 3.18 98.25 2.92 99.17 2.68H99.2L99.77 2.52H99.83V2.5L100.4 2.36H100.45L101.04 2.2H101.08C102.01 1.97 102.94 1.76 103.86 1.57H103.89C104.15 1.51 104.4 1.46 104.66 1.41H104.67C105.55 1.24 106.43 1.08 107.31 0.94H107.33C107.66 0.88 107.99 0.83 108.32 0.78H108.42C109.68 0.58 110.93 0.43 112.17 0.31H112.33C114.03 0.14 115.72 0.04 117.39 0H120.59C121.6 0.02 122.59 0.07 123.59 0.14V0.16H123.82C124.84 0.24 125.86 0.34 126.87 0.46L126.98 0.47C127.36 0.52 127.74 0.57 128.12 0.62H128.14C130.04 0.89 131.91 1.26 133.74 1.71H133.75L134.36 1.87C134.73 1.97 135.09 2.06 135.45 2.17V2.19H135.51C136.49 2.47 137.46 2.77 138.42 3.1V3.13H138.5L138.89 3.27V3.29H138.95L139.36 3.44H139.38C139.79 3.59 140.2 3.75 140.61 3.91C140.98 4.05 141.34 4.2 141.7 4.35V4.37H141.76C142 4.47 142.24 4.58 142.48 4.68C143.97 5.34 145.43 6.06 146.85 6.86H146.86C147.12 7 147.37 7.15 147.63 7.3V7.33H147.68L147.94 7.49L148.41 7.77V7.8H148.46C148.7 7.95 148.95 8.1 149.19 8.25V8.27H149.22C149.68 8.56 150.14 8.87 150.6 9.18V9.21H150.64L151.07 9.5V9.52H151.1L151.54 9.83C151.75 9.98 151.96 10.13 152.16 10.28V10.3H152.18L152.59 10.6C152.92 10.85 153.24 11.11 153.57 11.37V11.39H153.6C153.85 11.59 154.1 11.79 154.35 12V12.02H154.37C155.22 12.73 156.05 13.45 156.85 14.21C156.9 14.26 156.95 14.31 157 14.36L157.15 14.5L157.16 14.51L157.3 14.65V14.67H157.32L157.46 14.81V14.83H157.48C157.84 15.19 158.2 15.55 158.56 15.91L158.57 15.92L158.71 16.07C159.24 16.63 159.76 17.2 160.27 17.78V17.79C160.8 18.4 161.32 19.02 161.82 19.65V19.67H161.83C161.99 19.87 162.13 20.07 162.29 20.27V20.3H162.31C162.89 21.06 163.46 21.84 164.01 22.63V22.64C164.11 22.79 164.21 22.95 164.31 23.1L164.62 23.57C164.88 23.98 165.14 24.39 165.4 24.8V24.82H165.41C165.56 25.07 165.72 25.31 165.87 25.56V25.6H165.89C166.04 25.86 166.19 26.12 166.34 26.38C166.61 26.85 166.87 27.31 167.12 27.79L167.28 28.09V28.11L167.43 28.39V28.42H167.45L167.59 28.69V28.74H167.61L167.74 28.99V29.05H167.77L167.9 29.31V29.36H167.92L168.05 29.63V29.67H168.07C168.44 30.43 168.8 31.21 169.14 31.99V32.01H169.15C169.31 32.37 169.46 32.73 169.61 33.1C169.82 33.62 170.03 34.14 170.23 34.66C170.45 35.23 170.65 35.8 170.86 36.37V36.38L171.01 36.83V36.85C171.17 37.32 171.32 37.78 171.47 38.26C171.58 38.6 171.68 38.93 171.78 39.27V39.35H171.81L171.94 39.79V39.82C172.42 41.49 172.83 43.14 173.18 44.82C173.29 45.34 173.39 45.86 173.49 46.38C173.54 46.65 173.6 46.93 173.65 47.2V47.32H173.67C173.84 48.28 173.98 49.25 174.12 50.23V50.29C174.17 50.66 174.22 51.03 174.27 51.4V51.55H174.29C174.41 52.52 174.5 53.5 174.59 54.49V54.68H174.61C174.66 55.35 174.71 56.03 174.75 56.7V56.71C174.94 60.08 174.95 63.53 174.75 67.04V67.15C174.71 67.89 174.66 68.64 174.6 69.39V69.48C174.55 70.07 174.5 70.67 174.44 71.26C174.39 71.73 174.35 72.2 174.3 72.67H174.28V72.8C174.23 73.23 174.18 73.65 174.13 74.08V74.11C174 75.19 173.85 76.28 173.68 77.37H173.66V77.47C173.52 78.37 173.37 79.28 173.2 80.19V80.24C172.88 81.99 172.52 83.74 172.12 85.51H172.11V85.56C171.78 87 171.42 88.44 171.03 89.89V89.93C170.88 90.49 170.72 91.05 170.56 91.61C170.26 92.65 169.95 93.69 169.63 94.74L169.49 95.21H169.48V95.26L169.34 95.68H169.32V95.73C168.97 96.81 168.61 97.88 168.23 98.96C168.03 99.54 167.82 100.11 167.62 100.68H167.61V100.71C167.31 101.53 166.99 102.36 166.67 103.18C166.57 103.44 166.47 103.7 166.37 103.96V103.98L166.06 104.74V104.76C165.51 106.11 164.94 107.46 164.35 108.81V108.83C163.75 110.18 163.13 111.53 162.48 112.88L162.34 113.19H162.33V113.21L162.19 113.5H162.17V113.54L162.03 113.82H162.01V113.86C161.56 114.79 161.09 115.71 160.61 116.64C160.21 117.43 159.79 118.21 159.37 118.99H159.36V119.02L159.21 119.31C158.76 120.15 158.29 120.98 157.82 121.81H157.8V121.84C157.6 122.2 157.4 122.55 157.19 122.91H157.18V122.94C156.43 124.24 155.65 125.54 154.85 126.83V126.85C154.59 127.26 154.33 127.67 154.07 128.09C152.87 129.98 151.62 131.86 150.32 133.72C150.06 134.09 149.8 134.45 149.54 134.82C149.28 135.19 149.02 135.55 148.76 135.92C148.61 136.13 148.45 136.34 148.3 136.55H148.29V136.57C147.89 137.11 147.5 137.65 147.09 138.19C146.87 138.48 146.65 138.77 146.43 139.06H146.41V139.08L145.95 139.68L145.35 140.46H145.33V140.49C145.13 140.74 144.93 140.99 144.73 141.24H144.7V141.28L144.23 141.87C143.77 142.45 143.3 143.02 142.83 143.59C142.57 143.91 142.31 144.22 142.06 144.53L141.94 144.69H141.91V144.73C141.66 145.03 141.4 145.33 141.15 145.63H141.13V145.65C140.82 146.01 140.51 146.37 140.2 146.72C139.84 147.15 139.47 147.56 139.11 147.97C138.59 148.55 138.08 149.12 137.55 149.69L137.41 149.85H137.39V149.87L137.26 150.01H137.23V150.04C136.51 150.82 135.78 151.59 135.04 152.35L134.89 152.51L134.74 152.67H134.73L134.59 152.83H134.57V152.85L134.43 152.99H134.41V153.01L134.28 153.15H134.26V153.17L134.13 153.3H134.11V153.32L133.98 153.45H133.95V153.48L133.82 153.61H133.79V153.64L133.66 153.77H133.63V153.8L133.51 153.93H133.48V153.96L133.36 154.08H133.33V154.11L133.21 154.23H133.18V154.26L133.05 154.38H133.02V154.41L132.89 154.54H132.86V154.57L132.73 154.7H132.7V154.73L132.57 154.86H132.54V154.89L132.41 155.02H132.38V155.05L132.25 155.18H132.23V155.2L132.09 155.34H132.07V155.36L131.93 155.5H131.92L131.77 155.66L131.62 155.82L131.46 155.98C130.75 156.67 130.03 157.35 129.31 158.01H129.27V158.05L129.14 158.17H129.11V158.2L128.97 158.33H128.96L128.8 158.49C127.87 159.34 126.94 160.18 126 160.99H125.98V161.01C125.62 161.32 125.27 161.63 124.91 161.93H124.89V161.95C124.53 162.26 124.17 162.56 123.8 162.87C123.49 163.14 123.18 163.4 122.86 163.65C122.6 163.86 122.35 164.07 122.09 164.28H122.08L121.31 164.91H121.3C121.04 165.13 120.78 165.33 120.52 165.54L119.92 166.01H119.89V166.03C119.22 166.55 118.54 167.07 117.86 167.57C117.51 167.83 117.16 168.09 116.8 168.35H116.76V168.38L116.15 168.82H116.13C115.77 169.09 115.41 169.35 115.05 169.6H115.03C114.51 169.98 113.99 170.34 113.47 170.69L113.01 171H113L112.55 171.31H112.53L112.08 171.62H112.07L111.61 171.93H111.6L111.13 172.24C110.15 172.88 109.16 173.51 108.17 174.12L107.4 174.59H107.38L106.61 175.06C105.99 175.44 105.36 175.8 104.74 176.16C104.27 176.43 103.81 176.69 103.34 176.94L103.07 177.1H103.03V177.12C102.46 177.43 101.89 177.74 101.32 178.04L101.03 178.2H101.01C100.19 178.64 99.38 179.05 98.56 179.45H98.51V179.48L98.25 179.61H98.2V179.63L97.92 179.76H97.88V179.78L97.59 179.92H97.57L97.27 180.08C96.6 180.4 95.93 180.72 95.25 181.02H95.24C94.89 181.18 94.55 181.34 94.2 181.49H94.15V181.51L93.85 181.64L93.13 181.95H93.07V181.98L92.76 182.11L92.01 182.42H91.98C91.47 182.64 90.97 182.85 90.46 183.05H90.42V183.07L89.65 183.37H89.63L89.24 183.53H89.17V183.56C88.92 183.66 88.66 183.75 88.41 183.84H88.39L87.98 184H87.92V184.02C87.35 184.23 86.78 184.43 86.2 184.62L85.74 184.78H85.73L85.27 184.94H85.26C84.61 185.16 83.96 185.37 83.31 185.57H83.23V185.59L82.79 185.72H82.76C82.04 185.94 81.33 186.15 80.61 186.35H80.57L80.03 186.51H79.94V186.53C79.08 186.76 78.22 186.98 77.36 187.18C98.22 181.1 119.45 166.41 135.81 144.7C167.6 102.49 168.95 49.83 138.84 27.08C112.27 7.01 70.09 16.93 38.7 48.49C36.79 48.64 34.92 48.76 33.4 48.87C33.7 48.49 34 48.11 34.3 47.73L34.28 47.81Z" fill="white"/>
</mask>
<g mask="url(#mask0_11_23)">
<path d="M175.15 0.0900269H33.3799V187.26H175.15V0.0900269Z" fill="url(#paint0_linear_11_23)"/>
</g>
<defs>
<linearGradient id="paint0_linear_11_23" x1="38.6799" y1="93.64" x2="197.82" y2="93.72" gradientUnits="userSpaceOnUse">
<stop stop-color="#B5C455"/>
<stop offset="0.28" stop-color="#B5C455"/>
<stop offset="0.32" stop-color="#CFCC44"/>
<stop offset="0.38" stop-color="#F6D01B"/>
<stop offset="0.46" stop-color="#F9C814"/>
<stop offset="0.55" stop-color="#F9C814"/>
<stop offset="0.65" stop-color="#F5B13F"/>
<stop offset="0.69" stop-color="#E9207D"/>
<stop offset="0.77" stop-color="#E7655A"/>
<stop offset="0.85" stop-color="#E49B3E"/>
<stop offset="0.92" stop-color="#E2C226"/>
<stop offset="0.97" stop-color="#E0DA20"/>
<stop offset="1" stop-color="#E1E320"/>
</linearGradient>
</defs>
</svg>
